#!OML:ASF X:\für Bonn\!DataBase\2005_08_12_Daniel\c3d\Daniel.ASF
:FULLY-SPECIFIED
:DEGREES
46
root -3.9488 14.8737 -0.944327 193.5 -88.2953 -209.556
lowerback 32.538 -2.01563 2.34242
upperback 1.15595 -2.50985 -2.75016
thorax -15.9103 -1.48508 -3.18649
lowerneck 5.01525 2.25588 -1.87276
upperneck 1.53472 2.86819 0.64029
head -0.390916 1.40405 0.450091
rclavicle 3.67379e-014 1.90833e-014
rhumerus 69.7895 -21.0648 -162.797
rradius 8.69896
rwrist 130.792
rhand -19.9701 11.9832
rfingers 7.12502
rthumb 6.36866 -17.9011
lclavicle 3.67379e-014 1.90833e-014
lhumerus 60.2395 14.2279 117.399
lradius 9.26656
lwrist -91.8569
lhand -17.1932 1.57521
lfingers 7.12502
lthumb 9.04893 31.3611
rfemur -19.1771 -20.036 4.06898
rtibia 74.828
rfoot 339.532 18.8425
rtoes -7.21081
lfemur -200.838 168.526 -189.908
ltibia 74.9673
lfoot -30.3416 -17.8719
ltoes -0.290946
47
root -3.9417 14.7362 -0.949147 192.789 -88.3135 -209.113
lowerback 32.9816 -2.03833 2.33393
upperback 1.24022 -2.54789 -2.75798
thorax -16.0055 -1.50404 -3.16379
lowerneck 5.07994 2.26055 -1.86064
upperneck 1.43446 2.87453 0.634685
head -0.432365 1.40799 0.445116
rclavicle -1.47598e-014 7.15625e-015
rhumerus 69.8435 -20.6724 -162.73
rradius 8.72877
rwrist 130.994
rhand -19.925 11.9733
rfingers 7.12502
rthumb 6.41224 -17.9097
lclavicle -1.47598e-014 7.15625e-015
lhumerus 60.4709 14.1394 117.511
lradius 9.26691
lwrist -92.0999
lhand -16.8015 1.62032
lfingers 7.12502
lthumb 9.4269 31.3895
rfemur -20.1638 -20.703 3.54513
rtibia 77.0036
rfoot 340.007 19.7593
rtoes -6.98188
lfemur -201.812 167.93 -189.454
ltibia 77.0354
lfoot -30.1685 -18.7199
ltoes -0.199484
48
root -3.93379 14.5891 -0.954574 192.515 -88.3438 -209.101
lowerback 33.404 -2.0536 2.3129
upperback 1.33074 -2.58191 -2.767
thorax -16.0814 -1.5203 -3.13757
lowerneck 5.14081 2.26269 -1.83384
upperneck 1.33843 2.87845 0.634456
head -0.471768 1.41071 0.439464
rclavicle -1.08089e-014 1.31198e-014
rhumerus 69.929 -20.2959 -162.657
rradius 8.74434
rwrist 131.166
rhand -19.8586 11.9566
rfingers 7.12502
rthumb 6.4763 -17.9244
lclavicle -1.08089e-014 1.31198e-014
lhumerus 60.7307 13.9952 117.646
lradius 9.24457
lwrist -92.4057
lhand -16.3622 1.64388
lfingers 7.12502
lthumb 9.8507 31.3934
rfemur -21.1463 -21.3803 3.02449
rtibia 79.1751
rfoot 340.376 20.6093
rtoes -6.89888
lfemur -202.832 167.352 -188.987
ltibia 79.1361
lfoot -29.8618 -19.657
ltoes 0.0456519
49
root -3.92549 14.4377 -0.960157 191.717 -88.359 -208.577
lowerback 33.8472 -2.06927 2.29304
upperback 1.42253 -2.61611 -2.77309
thorax -16.1625 -1.5368 -3.10805
lowerneck 5.19374 2.2664 -1.82071
upperneck 1.25511 2.88371 0.629493
head -0.506135 1.41398 0.434732
rclavicle 1.3244e-014 8.34896e-015
rhumerus 69.971 -19.9304 -162.577
rradius 8.79189
rwrist 131.309
rhand -19.796 11.9181
rfingers 7.12502
rthumb 6.53679 -17.961
lclavicle 1.3244e-014 8.34896e-015
lhumerus 61.0086 13.8746 117.77
lradius 9.21415
lwrist -92.8611
lhand -15.966 1.67241
lfingers 7.12502
lthumb 10.233 31.4035
rfemur -22.1102 -22.0386 2.49738
rtibia 81.3433
rfoot 340.688 21.4788
rtoes -6.82682
lfemur -203.85 166.755 -188.483
ltibia 81.2534
lfoot -29.4733 -20.5999
ltoes 0.310748
50
root -3.9159 14.2796 -0.965926 190.765 -88.4003 -207.893
lowerback 34.2814 -2.08875 2.28745
upperback 1.5141 -2.64939 -2.77611
thorax -16.2381 -1.55374 -3.08334
lowerneck 5.26837 2.2703 -1.77914
upperneck 1.15638 2.89049 0.62077
head -0.548428 1.41816 0.423818
rclavicle 1.32689e-014 1.39149e-014
rhumerus 70.0481 -19.576 -162.495
rradius 8.82391
rwrist 131.334
rhand -19.6482 11.9157
rfingers 7.12502
rthumb 6.6794 -17.9589
lclavicle 1.32689e-014 1.39149e-014
lhumerus 61.2943 13.7365 117.897
lradius 9.15136
lwrist -93.2857
lhand -15.6524 1.7154
lfingers 7.12502
lthumb 10.5355 31.4314
rfemur -23.0832 -22.7126 1.96976
rtibia 83.5169
rfoot 340.968 22.3068
rtoes -6.72886
lfemur -204.905 166.171 -187.948
ltibia 83.3887
lfoot -28.9839 -21.6097
ltoes 0.751705
51
root -3.90536 14.117 -0.972855 189.519 -88.4475 -206.903
lowerback 34.7124 -2.10122 2.25571
upperback 1.60013 -2.67762 -2.74499
thorax -16.3129 -1.56514 -3.00891
lowerneck 5.3642 2.27903 -1.84554
upperneck 1.02645 2.89738 0.64218
head -0.606482 1.42194 0.439608
rclavicle -2.59911e-014 -2.0276e-014
rhumerus 70.096 -19.2189 -162.363
rradius 8.84752
rwrist 131.267
rhand -19.4538 11.9196
rfingers 7.12502
rthumb 6.86708 -17.949
lclavicle -2.59911e-014 -2.0276e-014
lhumerus 61.56 13.6447 118.052
lradius 9.13466
lwrist -93.7675
lhand -15.4337 1.74038
lfingers 7.12502
lthumb 10.7465 31.4455
rfemur -24.0745 -23.4058 1.45257
rtibia 85.6913
rfoot 341.187 23.1198
rtoes -6.75094
lfemur -205.994 165.579 -187.386
ltibia 85.5268
lfoot -28.472 -22.6287
ltoes 1.14248
52
root -3.89401 13.9483 -0.979477 188.501 -88.489 -206.148
lowerback 35.1464 -2.11292 2.25046
upperback 1.69445 -2.70164 -2.74811
thorax -16.3803 -1.57828 -2.98837
lowerneck 5.42199 2.27455 -1.81448
upperneck 0.934882 2.89279 0.632405
head -0.643927 1.42042 0.430548
rclavicle 8.94531e-016 6.75868e-015
rhumerus 70.1658 -18.8908 -162.268
rradius 8.91615
rwrist 131.112
rhand -19.2689 11.9415
rfingers 7.12502
rthumb 7.04555 -17.9212
lclavicle 8.94531e-016 6.75868e-015
lhumerus 61.8111 13.4928 118.179
lradius 9.10448
lwrist -94.2522
lhand -15.3335 1.75186
lfingers 7.12502
lthumb 10.8431 31.4519
rfemur -25.0537 -24.0905 0.898226
rtibia 87.867
rfoot 341.418 23.9642
rtoes -6.70244
lfemur -207.072 164.974 -186.812
ltibia 87.6585
lfoot -27.9527 -23.685
ltoes 1.5844
